<svg xmlns="http://www.w3.org/2000/svg" viewBox="0 0 24 24">
  <path d="M23.956 9.694c-.067-.268-.334-.392-.564-.392h-3.093c-.274 0-.524.187-.597.446-.376 1.326-.998 3.037-1.549 3.037-.147 0-.218-.132-.163-.356.406-1.61 1.138-4.24 1.138-4.24.053-.197-.047-.43-.24-.526-.197-.1-.43-.052-.526.097l-1.374 2.078s-.443.668-.998.668c-.526 0-.63-.37-.63-.696 0-1.422.652-4.066 1.374-6.166.147-.426-.05-.695-.5-.695h-3.093c-.296 0-.543.215-.595.506-.83 4.716-2.413 8.09-3.38 8.09-.296 0-.37-.268-.243-.63.704-2.013 2.06-6.376 2.06-6.376.11-.32-.08-.526-.343-.526h-2.926c-.313 0-.563.24-.563.537 0 2.392 1.286 6.12 2.03 7.31.215.347 0 .63-.37.63h-3.093c-.344 0-.597.216-.65.52-.63 3.542-2.413 8.53-2.413 8.53-.1.295.097.63.446.63h3.093c.243 0 .426-.135.536-.344 1.286-2.413 3.272-7.05 3.272-7.05.146-.344.446-.393.65-.234 1.706 1.313 2.926 3.284 2.926 3.284.145.296.37.445.695.445h3.093c.426 0 .695-.344.65-.773-.396-4.24-2.06-8.356-2.06-8.356-.11-.296-.216-.445-.537-.445-.216 0-.482.134-.63.343-.63 1.002-1.516 3.034-1.516 3.034-.145.296 0 .63.343.63h3.093c.268 0 .445-.135.564-.37.63-1.313 1.516-3.326 1.516-3.326.053-.216-.135-.445-.426-.445z"/>
</svg>